<?xml version="1.0"?>
<svg xmlns="http://www.w3.org/2000/svg" xmlns:xlink="http://www.w3.org/1999/xlink" version="1.1" viewBox="0 0 252 252" width="20px" height="20px"><g fill="none" fill-rule="nonzero" stroke="none" stroke-width="1" stroke-linecap="butt" stroke-linejoin="miter" stroke-miterlimit="10" stroke-dasharray="" stroke-dashoffset="0" font-family="none" font-weight="none" font-size="none" text-anchor="none" style="mix-blend-mode: normal"><path d="M0,252v-252h252v252z" fill="none"/><g><g id="surface1"><path d="M132.3,152.13516l-76.51055,76.51055l-26.13516,-26.13516l76.51055,-76.51055l-76.51055,-76.51055l26.13516,-26.13516l76.51055,76.51055l76.51055,-76.51055l26.13516,26.13516l-76.51055,76.51055l76.51055,76.51055l-26.13516,26.13516z" fill="#ffffff"/><path d="M208.81055,27.8086l21.68086,21.68086l-76.51055,76.51055l76.51055,76.51055l-21.68086,21.68086l-76.51055,-76.51055l-76.51055,76.51055l-21.68086,-21.68086l76.51055,-76.51055l-76.51055,-76.51055l21.68086,-21.68086l76.51055,76.51055l76.51055,-76.51055M208.81055,18.9l-76.51055,76.51055l-76.51055,-76.51055l-30.58945,30.58945l76.51055,76.51055l-76.51055,76.51055l30.58945,30.58945l76.51055,-76.51055l76.51055,76.51055l30.58945,-30.58945l-76.51055,-76.51055l76.51055,-76.51055z" fill="#27ae60"/></g></g></g></svg>
