<svg xmlns="http://www.w3.org/2000/svg" x="0px" y="0px"
     width="20" height="20"
     viewBox="0 0 252 252"
     style="fill:#000000;"><g fill="none" fill-rule="nonzero" stroke="none" stroke-width="none" stroke-linecap="none" stroke-linejoin="none" stroke-miterlimit="10" stroke-dasharray="" stroke-dashoffset="0" font-family="none" font-weight="none" font-size="none" text-anchor="none" style="mix-blend-mode: normal"><path d="M0,252v-252h252v252z" fill="none" stroke="none" stroke-width="1" stroke-linecap="butt" stroke-linejoin="miter"></path><g id="Слой_1"><g><g fill="#ffffff" stroke="none" stroke-width="1" stroke-linecap="butt" stroke-linejoin="miter"><g><path d="M33.66563,222.66562l70.875,-15.75c3.34687,-0.7875 6.49687,-2.55937 8.85938,-4.92187l104.14688,-104.14687c7.0875,-7.0875 7.0875,-18.50625 0,-25.59375l-38.19375,-37.99688c-7.0875,-7.0875 -18.50625,-7.0875 -25.59375,0l-104.14687,104.14688c-2.3625,2.3625 -4.13437,5.5125 -4.92187,8.85938l-15.35625,71.07188c-0.98437,2.55937 1.77188,5.31562 4.33125,4.33125z"></path></g></g><g><g fill="#ffffff" stroke="none" stroke-width="1" stroke-linecap="butt" stroke-linejoin="miter"><g><path d="M204.94687,110.84062l12.79688,-12.79687c7.0875,-7.0875 7.0875,-18.50625 0,-25.59375l-38.19375,-38.39062c-7.0875,-7.0875 -18.50625,-7.0875 -25.59375,0l-12.79687,12.79688"></path></g></g><g stroke="none" stroke-width="1" stroke-linecap="butt" stroke-linejoin="miter"><g fill="#e1e0df"><g><path d="M163.20938,29.33438c-2.3625,0.39375 -4.52813,1.37812 -6.49688,2.55937c1.96875,-1.18125 4.33125,-2.16562 6.49688,-2.55937z"></path></g></g><g fill="#2ecc71"><g><path d="M81.9,170.1l-31.89375,-31.89375l91.15312,-91.15312l63.7875,63.7875l-91.15312,91.15312z"></path></g></g><g fill="#27ae60"><g><path d="M81.9,170.1l91.15313,-91.15312l31.89375,31.89375l-91.15312,91.15312z"></path></g></g><g fill="#101215" opacity="0.1"><g><g><path d="M100.99687,189.39375l103.95,-103.95c7.0875,-7.0875 7.0875,-18.50625 0,-25.59375l12.79688,12.79688c7.0875,7.0875 7.0875,18.50625 0,25.59375l-104.14687,104.14688c-2.3625,2.3625 -5.5125,4.13438 -8.85937,4.92188l-71.07188,15.35625c-2.95313,0.98438 -5.5125,-1.575 -4.52813,-4.52812l11.025,-6.49687l51.58125,-17.325c3.74063,-0.59063 6.69375,-2.3625 9.25312,-4.92188z"></path></g></g></g><g fill="#a8b2c6"><g><path d="M29.33438,218.33438l5.5125,-30.31875l29.53125,29.53125l-30.7125,5.31563c-2.55938,0.7875 -5.31563,-1.96875 -4.33125,-4.52812z"></path></g></g><g fill="#e1e0df"><g><path d="M220.10625,95.2875c1.37813,-1.96875 2.16563,-4.13438 2.75625,-6.49687c-0.59062,2.16563 -1.37813,4.52812 -2.75625,6.49687z"></path></g></g></g><g fill="none" stroke="none" stroke-width="1" stroke-linecap="butt" stroke-linejoin="miter"><g><path d="M141.15938,47.05312l63.7875,63.7875"></path></g></g><g fill="none" stroke="#464c55" stroke-width="11.8125" stroke-linecap="round" stroke-linejoin="round"><g><g><path d="M173.05313,78.94688"></path></g></g></g></g><g fill="none" stroke="#464c55" stroke-width="11.8125" stroke-linecap="round" stroke-linejoin="round"><g><path d="M173.05313,78.94688"></path></g></g><g fill="#464c55" stroke="none" stroke-width="1" stroke-linecap="butt" stroke-linejoin="miter"><g><path d="M25.9875,226.0125c-2.55937,-2.55937 -3.34687,-6.10312 -2.3625,-9.25313l15.55312,-70.67812c1.18125,-4.52812 3.15,-8.46562 6.49688,-11.61563l103.95,-104.34375c9.25313,-9.25313 24.4125,-9.45 33.8625,-0.19688l38.19375,38.19375c9.25313,9.25312 9.25313,24.60938 0,34.05938l-104.14687,104.14688c-3.15,3.15 -7.28438,5.5125 -11.61563,6.49687l-70.67812,15.55312c-3.15,0.98438 -6.69375,0.19687 -9.25312,-2.3625zM175.21875,38.39063c-4.725,-4.725 -12.6,-4.725 -17.325,0l-104.14687,104.14688c-1.575,1.575 -2.75625,3.54375 -3.15,5.90625l-14.9625,67.725l67.725,-14.9625c2.16563,-0.59062 4.33125,-1.575 5.90625,-3.15l104.14688,-104.14687c4.725,-4.725 4.725,-12.6 0,-17.325z"></path></g></g></g></g></g></svg>
