<svg xmlns="http://www.w3.org/2000/svg" x="0px" y="0px"
     width="40" height="40"
     viewBox="0 0 252 252"
     style="fill:#ffffff;"><g fill="none" fill-rule="nonzero" stroke="none" stroke-width="1" stroke-linecap="butt" stroke-linejoin="miter" stroke-miterlimit="10" stroke-dasharray="" stroke-dashoffset="0" font-family="none" font-weight="none" font-size="none" text-anchor="none" style="mix-blend-mode: normal"><path d="M0,252v-252h252v252z" fill="none"></path><g id="Layer_1"><g><g fill="#f1c40f"><g><path d="M141.06094,195.79219c-0.04922,0.29531 -0.14766,0.63984 -0.34453,0.93516c-0.98437,1.575 -1.62422,3.29766 -2.31328,4.97109c1.47656,-0.59062 3.19922,-0.7875 4.82344,-0.59062c-0.88594,-1.67344 -1.62422,-3.44531 -2.16563,-5.31563z"></path></g></g><g fill="#f1c40f"><g><path d="M129.44531,194.85703c-3.00234,-0.49219 -5.95547,-1.67344 -9.00703,-1.47656c-0.19687,0 -0.34453,0 -0.49219,0c-1.13203,2.31328 -2.90391,4.38047 -5.21719,6.15234c0.19688,0.19688 0.34453,0.49219 0.49219,0.7875c1.13203,2.55937 2.46094,5.02031 3.83906,7.48125c1.08281,1.96875 2.75625,4.13438 3.34687,6.3c0.34453,1.18125 0.83672,2.31328 1.47656,3.34688c0.04922,-0.09844 0.14766,-0.24609 0.19688,-0.34453c2.60859,-4.08516 4.82344,-8.17031 6.93984,-12.55078c1.47656,-3.00234 2.55937,-6.3 4.18359,-9.20391c-1.87031,-0.09844 -3.83906,-0.19688 -5.75859,-0.49219z"></path></g></g><g fill="#ef4754"><g><path d="M143.96484,207.35859c-0.34453,-0.83672 -1.87031,-1.18125 -2.90391,-0.88594c-0.24609,0.04922 -1.13203,0.34453 -1.08281,0.34453c-0.14766,0.04922 -0.83672,0.63984 -0.59062,0.34453c-0.09844,0.09844 -0.14766,0.14766 -0.14766,0.14766c0.54141,1.18125 0.19688,2.31328 -0.49219,3.10078c1.62422,3.05156 6.84141,0.59062 5.21719,-3.05156z"></path></g></g><g fill="#fcbf95"><g><path d="M156.90938,183.24141c-0.44297,-2.11641 -0.49219,-4.08516 -0.49219,-6.15234c-5.26641,3.19922 -11.22188,5.41406 -17.71875,6.34922c-6.64453,0.98438 -13.23984,0.59062 -19.58906,-0.93516c0.68906,1.91953 0.98438,3.69141 0.98438,5.36484c2.65781,0.04922 5.11875,0.7875 7.72734,1.32891c3.19922,0.63984 6.54609,0.63984 9.79453,0.68906c5.85703,0.04922 11.51719,-0.19688 16.88203,-2.55937c0.14766,-0.19688 0.34453,-0.39375 0.54141,-0.59063c0.39375,-0.29531 0.83672,-0.49219 1.27969,-0.63984c0.44297,-0.14766 0.88594,-0.19688 1.37812,-0.09844c-0.34453,-0.88594 -0.59063,-1.82109 -0.7875,-2.75625z"></path></g></g><g fill="#f1c40f"><g><path d="M163.89844,194.21719c-0.93516,-0.98437 -1.82109,-2.01797 -2.60859,-3.19922c-0.19687,-0.29531 -0.39375,-0.59063 -0.54141,-0.88594c-0.19688,0.44297 -0.49219,0.83672 -0.93516,1.08281c-4.33125,2.21484 -8.71172,3.34688 -13.33828,3.78984c1.42734,4.23281 4.08516,8.02266 5.80781,12.10781c0.88594,2.11641 1.62422,5.46328 3.15,7.62891c1.82109,-3.19922 3.05156,-6.89062 4.62656,-10.18828c0.73828,-1.575 1.47656,-3.15 2.11641,-4.77422c0.29531,-0.7875 0.63984,-1.575 0.7875,-2.3625c0,-0.04922 0.09844,-1.23047 0.24609,-0.63984c-0.19688,-1.03359 0.09844,-1.91953 0.68906,-2.55937z"></path></g></g><g fill="#fcbf95"><g><path d="M178.86094,68.95547c-1.96875,-2.16563 -4.08516,-4.67578 -5.70937,-7.38281c-3.34688,2.60859 -7.23516,4.23281 -11.61563,4.18359c-3.49453,-0.04922 -6.64453,-1.23047 -9.35156,-3.15c-2.41172,5.66016 -8.90859,9.35156 -15.01172,9.94219c-8.31797,0.7875 -16.83281,-1.77187 -22.34531,-8.07188c-5.46328,2.51016 -11.32031,4.28203 -17.37422,4.08516c-3.19922,-0.09844 -7.03828,-1.03359 -10.04063,-2.85469c-1.08281,2.70703 -2.51016,5.26641 -4.28203,7.67812c-1.03359,1.37813 -2.31328,2.75625 -3.78984,3.69141c-0.59062,0.39375 -1.23047,0.7875 -1.91953,0.98438c-0.24609,0.09844 -0.63984,0.14766 -1.03359,0.24609c0.54141,7.03828 1.32891,14.02734 2.31328,21.01641c1.52578,10.68047 2.95313,21.41016 4.725,32.04141c1.47656,8.81016 3.64219,17.81719 8.51484,25.39688c5.16797,8.07187 12.94453,14.37187 21.75469,18.06328c11.56641,4.87266 25.00313,5.31563 36.52031,0.09844c11.27109,-5.11875 19.98281,-14.61797 25.00313,-25.83984c2.85469,-6.34922 4.52812,-12.94453 5.66016,-19.63828c0,-0.04922 0,-0.09844 0,-0.19687v-0.63984c0,-0.54141 0.14766,-1.03359 0.34453,-1.42734c0.73828,-5.02031 1.23047,-10.13906 1.67344,-15.25781c1.13203,-12.50156 1.87031,-25.05234 2.55937,-37.60313c-2.55937,-0.98438 -4.97109,-3.49453 -6.59531,-5.36484zM110.05313,96.51797c-2.21484,1.77187 -5.66016,1.42734 -7.67812,-0.49219c-2.41172,-2.26406 -2.31328,-6.15234 -0.54141,-8.61328c-0.98437,-0.04922 -2.01797,0.04922 -3.05156,0.29531c-0.39375,0.39375 -0.98437,0.68906 -1.77187,0.68906h-1.03359c-3.05156,0 -4.42969,-4.57734 -1.13203,-5.46328c6.3,-1.77187 14.76563,-1.67344 16.83281,6.05391c0.68906,2.65781 0.73828,5.66016 -1.62422,7.53047zM125.31094,88.15078c0.29531,-3.64219 5.80781,-2.51016 5.56172,1.08281c-0.59062,7.48125 0.68906,14.86406 0.63984,22.29609c-0.04922,3.78984 -1.08281,12.00938 3.49453,13.63359c3.39609,1.23047 0.88594,6.25078 -2.51016,5.06953c-6.49687,-2.31328 -6.64453,-10.92656 -6.59531,-16.63594c0,-8.56406 -1.27969,-16.98047 -0.59063,-25.44609zM143.52188,148.44375c-3.24844,2.16562 -6.89062,4.725 -11.025,3.9375c-3.69141,-0.73828 -7.62891,-2.75625 -9.10547,-6.34922c-1.42734,-3.34688 3.9375,-5.21719 5.31563,-1.87031c0.73828,1.77188 4.28203,2.95313 6.05391,2.65781c2.06719,-0.34453 3.88828,-1.91953 5.61094,-3.05156c3.00234,-2.01797 6.15234,2.65781 3.15,4.67578zM163.06172,93.81094c-4.82344,2.60859 -9.69609,-2.75625 -8.61328,-7.53047c-0.98437,0.24609 -1.91953,0.7875 -2.70703,1.72266c-2.3625,2.75625 -6.59531,-0.93516 -4.23281,-3.74063c3.83906,-4.47891 10.04063,-4.92187 14.76563,-1.47656c3.64219,2.65781 5.70938,8.36719 0.7875,11.025z"></path></g></g><g fill="#2ecc71"><g><path d="M194.06953,161.4375c-2.21484,-5.06953 -4.87266,-9.99141 -6.59531,-15.30703c-0.09844,-0.24609 -0.14766,-0.54141 -0.24609,-0.7875c0.04922,5.5125 -0.29531,11.025 -1.575,16.38984c-1.03359,4.52812 -2.60859,9.35156 -2.26406,14.07656c0.19687,3.24844 1.87031,8.6625 6.10312,8.26875c3.49453,-0.34453 6.54609,-3.74063 7.18594,-7.0875c1.03359,-5.41406 -0.44297,-10.58203 -2.60859,-15.55313z"></path></g></g><g fill="#f39c12"><g><path d="M174.18516,45.52734c-2.21484,-3.34687 -5.75859,-3.98672 -9.25312,-5.26641c-4.08516,-1.47656 -5.95547,-4.08516 -6.15234,-8.41641c-0.19688,-3.69141 -1.82109,-6.10313 -5.26641,-7.62891c-3.19922,-1.47656 -6.69375,-2.11641 -10.18828,-2.51016c-3.83906,-0.39375 -7.82578,2.3625 -9.84375,5.41406c-0.7875,1.18125 -2.11641,1.47656 -3.19922,1.18125c-0.7875,1.32891 -2.55937,2.01797 -3.9375,0.59063c-5.02031,-5.02031 -13.23984,-3.15 -18.99844,-0.54141c-3.44531,1.575 -7.0875,3.78984 -8.36719,7.57969c-1.03359,3.00234 -1.13203,5.85703 2.46094,6.69375c3.05156,0.68906 2.70703,4.92188 -0.29531,5.36484c-3.44531,0.49219 -6.93984,2.11641 -9.74531,4.23281c-1.575,1.18125 -5.02031,3.98672 -3.49453,6.34922c2.51016,3.83906 7.92422,4.82344 12.15703,4.47891c4.92188,-0.39375 9.69609,-2.01797 14.07656,-4.28203c1.32891,-0.68906 2.85469,-0.59063 3.74062,0.73828c4.03594,5.85703 11.36953,8.31797 18.30938,7.62891c4.92188,-0.49219 11.8125,-3.69141 11.51719,-9.49922c-0.14766,-2.95312 3.24844,-3.64219 4.92188,-1.72266c5.95547,6.79219 15.70078,5.02031 20.52422,-2.11641c1.575,-2.31328 2.70703,-5.70937 1.03359,-8.26875z"></path></g></g><g fill="#f39c12"><g><path d="M236.69297,120.09375c0,-4.67578 0.14766,-10.38516 -2.65781,-14.42109c-2.31328,-3.29766 -6.74297,-4.87266 -6.93984,-9.45c-0.24609,-4.57734 4.97109,-7.53047 5.56172,-11.96016c0.49219,-3.9375 -0.04922,-8.07187 -1.575,-11.76328c-3.00234,-7.43203 -9.45,-12.79688 -17.76797,-11.07422c-2.06719,0.44297 -3.49453,-2.21484 -2.65781,-3.88828c2.65781,-5.16797 -0.14766,-11.32031 -3.9375,-15.15938c-2.11641,-2.11641 -4.23281,-4.67578 -6.89062,-6.05391c-2.80547,-1.47656 -5.41406,-0.88594 -8.46562,-0.83672c-1.47656,0.04922 -2.75625,-0.98437 -2.90391,-2.51016c-0.39375,-4.62656 -2.3625,-8.76094 -6.69375,-10.82812c-4.23281,-2.01797 -9.05625,-2.41172 -13.68281,-2.41172c-1.52578,0 -2.75625,-0.93516 -2.90391,-2.51016c-0.44297,-4.03594 -6.25078,-6.84141 -9.59766,-7.82578c-3.34688,-0.98437 -8.85937,-2.11641 -10.53281,1.96875c-0.19687,0.49219 -0.49219,0.83672 -0.7875,1.08281c-0.04922,1.27969 -0.24609,2.55937 -0.49219,3.83906c3.9375,0.14766 8.21953,1.18125 11.66484,2.80547c4.03594,1.87031 7.92422,5.11875 8.61328,9.74531c0.29531,1.87031 -0.39375,4.92187 1.62422,5.85703c2.16562,1.03359 4.52812,1.37812 6.69375,2.41172c4.18359,2.01797 8.07188,5.95547 8.12109,10.87734c0.04922,3.49453 -1.18125,6.84141 -3.24844,9.59766c1.13203,2.3625 3.05156,4.67578 4.67578,6.64453c1.13203,1.37813 2.3625,2.75625 3.78984,3.83906c0.54141,0.39375 1.03359,0.83672 1.67344,1.08281c2.41172,-1.13203 4.725,1.72266 3.64219,3.69141c-0.59063,11.12344 -1.23047,22.24687 -2.11641,33.32109c-0.59062,6.98906 -0.98437,14.02734 -1.96875,21.01641c0.54141,0.24609 1.03359,0.7875 1.27969,1.575c1.82109,6.34922 3.29766,12.89531 5.70938,19.09687c2.31328,5.80781 5.70938,11.27109 7.38281,17.325c1.47656,5.26641 2.16562,11.56641 -0.59062,16.5375c-2.06719,3.78984 -5.66016,7.33359 -10.18828,7.77656c-4.82344,0.44297 -9.20391,-2.60859 -11.07422,-7.03828c-2.11641,-5.02031 -1.47656,-10.63125 -0.34453,-15.79922c1.27969,-5.85703 2.65781,-11.46797 2.80547,-17.52188c0,-0.68906 0,-1.42734 0,-2.11641c-4.08516,10.2375 -10.43438,19.58906 -18.85078,26.28281c-0.09844,4.97109 -0.44297,9.84375 2.46094,14.175c2.41172,3.59297 5.85703,6.25078 9.74531,8.12109c6.49687,3.15 13.19062,3.78984 20.22891,4.77422c3.64219,0.49219 7.92422,1.13203 11.71406,2.55937c0.44297,-1.08281 1.47656,-1.91953 2.90391,-1.77188c5.46328,0.49219 8.02266,-7.18594 7.72734,-11.41875c-0.24609,-2.90391 -1.13203,-5.02031 -2.85469,-7.33359c-1.37813,-1.91953 -2.70703,-3.74063 -3.69141,-5.90625c-0.68906,-1.52578 0.68906,-3.59297 2.3625,-3.59297c6.05391,0.09844 13.14141,-5.80781 14.37187,-11.71406c0.39375,-1.82109 0.29531,-3.78984 0.29531,-5.66016c-0.04922,-1.96875 0.09844,-4.77422 -1.03359,-6.49687c-1.77188,-2.75625 -4.47891,-4.47891 -5.75859,-7.62891c-0.54141,-1.27969 0.29531,-3.10078 1.67344,-3.44531c3.9375,-1.03359 8.36719,-2.51016 11.07422,-5.75859c2.65781,-3.59297 2.41172,-7.82578 2.41172,-12.10781z"></path></g></g><g fill="#2ecc71"><g><path d="M80.17734,170.73984c-0.93516,-4.87266 -1.77187,-9.64687 -1.77187,-14.61797c0,-4.38047 0.29531,-8.71172 0.68906,-13.09219c-0.34453,1.42734 -0.68906,2.85469 -1.08281,4.28203c-1.42734,5.31563 -3.34688,10.43437 -5.21719,15.60234c-1.575,4.38047 -3.15,9.30234 -2.70703,14.02734c0.24609,2.70703 0.93516,6.34922 3.05156,8.26875c2.3625,2.11641 5.70937,-0.7875 6.74297,-3.10078c1.62422,-3.54375 1.03359,-7.67812 0.29531,-11.36953z"></path></g></g><g fill="#f39c12"><g><path d="M138.05859,9.99141c-1.91953,-1.62422 -4.42969,-2.60859 -6.89062,-3.10078c-4.23281,-0.88594 -11.32031,-1.42734 -14.07656,2.85469c-1.03359,1.575 -2.65781,1.87031 -4.23281,0.83672c-7.48125,-5.06953 -16.09453,-1.82109 -23.13281,2.3625c-3.49453,2.06719 -6.10313,4.42969 -7.97344,8.07188c-1.27969,2.55937 -3.19922,4.52812 -6.25078,4.62656c-1.87031,0.04922 -3.83906,0.09844 -5.66016,0.39375c-1.96875,0.29531 -3.59297,1.32891 -5.26641,2.31328c-3.54375,2.16562 -6.98906,4.57734 -9.89297,7.53047c-4.82344,4.92188 -10.18828,13.04297 -8.02266,20.32734c0.49219,1.62422 -0.54141,3.49453 -2.3625,3.59297c-5.16797,0.29531 -9.05625,3.29766 -12.25547,7.18594c-3.19922,3.83906 -6.00469,8.02266 -8.12109,12.55078c-1.77188,3.83906 -4.87266,10.92656 -2.3625,15.01172c2.31328,3.78984 5.75859,7.62891 3.54375,12.35391c-1.87031,3.98672 -6.10312,6.10313 -7.92422,10.13906c-1.87031,4.23281 -2.21484,9.10547 -1.77187,13.68281c0.44297,4.42969 1.23047,9.35156 4.47891,12.64922c3.10078,3.15 6.98906,5.11875 10.87734,7.0875c1.37812,0.68906 1.82109,2.26406 1.23047,3.64219c-2.70703,6.44766 -6.74297,12.6 -4.77422,19.88437c1.47656,5.41406 5.56172,10.58203 11.41875,11.07422c2.60859,0.19687 5.56172,0.59062 6.93984,3.10078c1.52578,2.65781 0.09844,4.82344 -0.14766,7.53047c-0.24609,2.70703 3.78984,3.88828 5.75859,4.13437c2.55938,0.34453 5.11875,0.24609 7.72734,0.24609c1.575,0 2.60859,0.93516 2.90391,2.51016c0.44297,2.3625 1.08281,3.15 3.39609,3.78984c0.98438,0.24609 1.62422,0.93516 1.87031,1.67344c6.79219,-2.21484 14.42109,-2.65781 21.36094,-4.08516c7.28438,-1.52578 15.30703,-3.34687 21.55781,-7.53047c2.16563,-1.47656 4.62656,-3.54375 5.31563,-6.05391c0.88594,-3.19922 -0.09844,-6.25078 -1.72266,-9.05625c-0.19688,-0.29531 -0.29531,-0.59062 -0.34453,-0.88594c-12.84609,-4.97109 -23.72344,-14.81484 -29.53125,-27.61172c-0.09844,2.85469 0,5.70938 0.24609,8.56406c0.49219,4.92188 2.06719,9.69609 2.21484,14.61797c0.09844,4.67578 -0.88594,9.30234 -4.52812,12.45234c-3.19922,2.75625 -7.38281,4.13438 -11.07422,1.62422c-7.28438,-4.92187 -6.59531,-16.78359 -4.47891,-24.01875c1.77187,-6.05391 4.38047,-11.8125 6.05391,-17.86641c1.77187,-6.49688 3.05156,-13.09219 4.33125,-19.73672c0.09844,-0.59062 0.34453,-1.03359 0.68906,-1.37812c-0.83672,-5.75859 -1.52578,-11.51719 -2.41172,-17.22656c-1.67344,-10.82812 -3.15,-21.70547 -3.88828,-32.58281c-0.19688,-0.73828 0,-1.52578 0.68906,-2.26406c0.98438,-1.03359 2.01797,-1.47656 3.39609,-1.91953c1.52578,-0.49219 2.70703,-1.52578 3.64219,-2.75625c2.01797,-2.70703 3.49453,-5.66016 4.62656,-8.85937c-0.24609,-0.39375 -0.44297,-0.83672 -0.59062,-1.32891c-2.65781,-7.33359 4.82344,-13.04297 11.8125,-15.79922c-1.23047,-1.67344 -1.82109,-3.83906 -1.52578,-6.34922c0.63984,-5.46328 4.03594,-10.04062 8.71172,-12.74766c7.875,-4.52812 19.78594,-7.67813 27.41484,-1.13203c2.21484,-3.15 5.46328,-5.95547 9.20391,-7.18594c-0.04922,-0.29531 -0.04922,-0.68906 0,-1.03359c0.29531,-1.72266 1.37812,-4.52812 -0.19688,-5.90625z"></path></g></g><g fill="#f1c40f"><g><path d="M210.65625,211.59141c-2.46094,-3.00234 -6.79219,-4.18359 -10.43437,-4.97109c-8.90859,-1.87031 -17.86641,-1.77188 -26.28281,-5.66016c-1.87031,-0.83672 -3.69141,-1.87031 -5.41406,-3.00234c-0.44297,3.00234 -2.21484,6.20156 -3.39609,8.61328c-2.26406,4.67578 -3.9375,9.84375 -7.0875,13.97813c-0.68906,0.93516 -2.26406,1.23047 -3.24844,0.63984c-3.24844,-1.87031 -4.82344,-5.31562 -6.15234,-8.71172c-1.08281,2.21484 -3.00234,3.98672 -5.56172,4.52812c-4.33125,0.98438 -8.12109,-1.42734 -9.54844,-5.21719c-1.23047,2.55937 -2.55937,5.31563 -4.38047,7.43203c-1.08281,1.27969 -1.67344,2.95313 -3.29766,3.78984c-4.18359,2.11641 -6.89062,-3.00234 -8.12109,-6.20156c-1.96875,-5.06953 -5.21719,-9.59766 -7.43203,-14.56875c-9.35156,5.02031 -22.54219,7.38281 -30.36797,8.6625c-5.36484,0.88594 -22.24688,2.55937 -18.26016,11.41875c2.55937,5.70938 9.49922,9.99141 14.9625,12.6c5.95547,2.85469 12.40313,4.67578 18.94922,5.5125c7.77656,1.03359 15.45469,2.26406 23.28047,2.85469c8.02266,0.63984 16.04531,0.88594 24.06797,0.7875c15.11016,-0.19687 30.76172,-0.98437 44.78906,-7.23516c7.97344,-3.54375 17.71875,-7.62891 22.78828,-15.11016c2.06719,-2.95312 2.60859,-7.0875 0.14766,-10.13906z"></path></g></g><g fill="#000000"><g><path d="M134.95781,125.11406c-4.57734,-1.62422 -3.49453,-9.84375 -3.49453,-13.63359c0.04922,-7.43203 -1.27969,-14.81484 -0.63984,-22.29609c0.29531,-3.59297 -5.26641,-4.725 -5.56172,-1.08281c-0.68906,8.51484 0.59062,16.93125 0.54141,25.44609c-0.04922,5.70938 0.09844,14.32266 6.59531,16.63594c3.44531,1.18125 6.00469,-3.83906 2.55938,-5.06953z"></path></g></g><g fill="#000000"><g><path d="M162.225,82.73672c-4.725,-3.44531 -10.87734,-3.00234 -14.76562,1.47656c-2.3625,2.75625 1.87031,6.49688 4.23281,3.74062c0.7875,-0.88594 1.72266,-1.47656 2.70703,-1.72266c-1.08281,4.82344 3.83906,10.13906 8.61328,7.53047c4.97109,-2.60859 2.90391,-8.31797 -0.7875,-11.025z"></path></g></g><g fill="#000000"><g><path d="M111.62813,88.9875c-2.06719,-7.72734 -10.48359,-7.82578 -16.83281,-6.05391c-3.24844,0.88594 -1.87031,5.46328 1.13203,5.46328h1.03359c0.7875,0 1.37813,-0.24609 1.77187,-0.68906c0.98438,-0.19687 2.01797,-0.34453 3.05156,-0.29531c-1.77188,2.46094 -1.82109,6.34922 0.54141,8.61328c2.01797,1.87031 5.46328,2.21484 7.67812,0.49219c2.41172,-1.87031 2.3625,-4.87266 1.62422,-7.53047z"></path></g></g><g fill="#000000"><g><path d="M140.37187,143.76797c-1.67344,1.13203 -3.54375,2.65781 -5.61094,3.05156c-1.77188,0.29531 -5.31563,-0.88594 -6.05391,-2.65781c-1.37813,-3.34687 -6.74297,-1.52578 -5.31563,1.87031c1.52578,3.59297 5.41406,5.61094 9.10547,6.34922c4.13438,0.83672 7.77656,-1.72266 11.025,-3.9375c3.00234,-2.01797 -0.14766,-6.69375 -3.15,-4.67578z"></path></g></g><g fill="#000000"><g><path d="M240.63047,107.14922c-0.73828,-2.46094 -2.06719,-4.67578 -3.78984,-6.54609c-0.68906,-0.7875 -4.77422,-3.29766 -4.38047,-4.52813c0.83672,-2.31328 2.85469,-4.23281 4.08516,-6.34922c1.32891,-2.26406 1.52578,-4.97109 1.62422,-7.53047c0.24609,-4.67578 -0.98437,-9.49922 -3.00234,-13.68281c-3.54375,-7.28437 -10.28672,-12.69844 -18.26016,-12.84609c0.88594,-5.66016 -1.47656,-11.61562 -5.21719,-15.89766c-2.60859,-2.95312 -5.5125,-5.75859 -8.81016,-7.92422c-3.00234,-1.96875 -6.10312,-1.96875 -9.40078,-1.82109c-1.03359,-5.11875 -3.69141,-9.35156 -8.36719,-12.15703c-4.42969,-2.65781 -9.94219,-3.29766 -15.15938,-3.44531c-1.91953,-5.21719 -7.875,-8.51484 -12.89531,-10.13906c-4.87266,-1.52578 -11.41875,-1.87031 -15.11016,1.87031c-2.21484,-2.26406 -5.80781,-3.54375 -8.6625,-4.33125c-6.34922,-1.72266 -14.37188,-1.47656 -19.19531,3.24844c-3.15,-1.67344 -6.44766,-2.60859 -10.18828,-2.65781c-4.67578,-0.04922 -9.10547,2.01797 -13.28906,3.98672c-3.98672,1.87031 -7.72734,4.23281 -10.72969,7.48125c-1.42734,1.575 -2.31328,3.34687 -3.24844,5.21719c-0.7875,1.52578 -2.26406,1.18125 -3.83906,1.27969c-2.01797,0.14766 -3.98672,0.24609 -5.95547,0.7875c-2.11641,0.59063 -4.13438,1.96875 -6.00469,3.10078c-4.18359,2.55938 -8.02266,5.61094 -11.36953,9.20391c-5.11875,5.46328 -9.35156,13.58438 -8.56406,21.31172c-9.49922,2.16563 -15.99609,11.41875 -20.475,19.58906c-2.75625,5.06953 -4.77422,10.68047 -4.97109,16.48828c-0.09844,2.65781 0.63984,5.02031 2.01797,7.28438c1.27969,2.06719 3.74063,4.23281 2.55938,6.84141c-0.88594,1.91953 -3.05156,3.39609 -4.52813,4.92188c-1.77187,1.87031 -3.05156,4.18359 -3.88828,6.59531c-1.87031,5.06953 -2.01797,10.68047 -1.42734,16.04531c0.59063,5.06953 1.91953,10.04062 5.31563,13.97812c2.90391,3.34688 6.69375,5.61094 10.63125,7.62891c-1.27969,2.75625 -2.65781,5.5125 -3.59297,8.41641c-1.23047,3.88828 -1.47656,7.875 -0.63984,11.91094c1.42734,6.98906 6.00469,12.35391 12.45234,15.30703c1.18125,0.54141 2.65781,0.54141 3.9375,0.63984c0.88594,0.09844 2.80547,0.09844 2.75625,0.73828c-0.19688,1.62422 -0.98437,3.15 -0.93516,4.82344c0.04922,1.77188 0.73828,3.29766 1.77187,4.725c3.44531,4.725 9.79453,4.87266 15.25781,4.77422c0.83672,2.41172 2.21484,4.03594 4.42969,5.16797c-2.75625,1.82109 -4.97109,4.38047 -5.70937,7.72734c-1.27969,5.95547 3.88828,11.22188 7.92422,14.76563c10.38516,9.05625 23.87109,11.76328 37.06172,13.68281c15.60234,2.26406 31.45078,3.10078 47.25,2.70703c14.56875,-0.39375 29.18672,-1.96875 42.62344,-7.97344c8.41641,-3.78984 17.81719,-8.17031 23.57578,-15.70078c4.33125,-5.66016 4.725,-13.04297 -0.14766,-18.45703c-0.39375,-0.44297 -0.83672,-0.88594 -1.32891,-1.27969c5.11875,-1.32891 8.61328,-6.25078 9.94219,-11.41875c0.93516,-3.54375 0.54141,-7.875 -0.88594,-11.22188c-0.88594,-2.16563 -2.41172,-3.9375 -3.74063,-5.80781c6.34922,-1.77188 11.96016,-7.43203 14.32266,-13.19063c1.67344,-4.08516 1.42734,-9.45 0.7875,-13.73203c-0.34453,-2.3625 -1.18125,-4.52812 -2.75625,-6.39844c-0.68906,-0.83672 -1.575,-1.62422 -2.31328,-2.41172c3.19922,-1.13203 6.20156,-2.75625 8.81016,-5.06953c3.64219,-3.24844 4.97109,-8.02266 5.06953,-12.74766c0.09844,-5.66016 0.24609,-11.46797 -1.42734,-16.98047zM143.325,21.70547c3.49453,0.34453 6.98906,1.03359 10.18828,2.51016c3.39609,1.575 5.06953,3.9375 5.26641,7.62891c0.19687,4.33125 2.06719,6.93984 6.15234,8.41641c3.49453,1.27969 7.03828,1.91953 9.25312,5.26641c1.67344,2.55938 0.54141,5.95547 -0.98437,8.26875c-4.82344,7.13672 -14.56875,8.90859 -20.52422,2.11641c-1.72266,-1.91953 -5.11875,-1.23047 -4.92187,1.72266c0.29531,5.85703 -6.59531,9.05625 -11.51719,9.49922c-6.93984,0.63984 -14.27344,-1.77187 -18.30938,-7.62891c-0.93516,-1.32891 -2.41172,-1.42734 -3.74062,-0.73828c-4.38047,2.26406 -9.15469,3.83906 -14.07656,4.28203c-4.23281,0.34453 -9.64687,-0.68906 -12.15703,-4.47891c-1.575,-2.3625 1.87031,-5.16797 3.49453,-6.34922c2.80547,-2.06719 6.3,-3.74062 9.74531,-4.23281c3.00234,-0.44297 3.34688,-4.67578 0.29531,-5.36484c-3.59297,-0.7875 -3.49453,-3.69141 -2.46094,-6.69375c1.27969,-3.74062 4.97109,-6.00469 8.36719,-7.57969c5.75859,-2.60859 13.97813,-4.47891 18.99844,0.54141c1.37812,1.37812 3.15,0.68906 3.9375,-0.59063c1.13203,0.29531 2.41172,0 3.19922,-1.18125c1.96875,-3.10078 6.00469,-5.80781 9.79453,-5.41406zM182.89688,111.77578c-0.44297,5.11875 -0.93516,10.2375 -1.67344,15.25781c-0.24609,0.39375 -0.34453,0.88594 -0.34453,1.42734v0.63984c0,0.04922 0,0.09844 0,0.19687c-1.13203,6.69375 -2.75625,13.28906 -5.66016,19.63828c-5.06953,11.22187 -13.73203,20.72109 -25.00313,25.83984c-11.56641,5.21719 -24.95391,4.82344 -36.52031,-0.09844c-8.81016,-3.69141 -16.58672,-10.04062 -21.75469,-18.06328c-4.87266,-7.57969 -7.03828,-16.63594 -8.51484,-25.39687c-1.77187,-10.63125 -3.19922,-21.36094 -4.725,-32.04141c-0.98437,-6.98906 -1.77187,-13.97813 -2.31328,-21.01641c0.39375,-0.09844 0.7875,-0.19688 1.03359,-0.24609c0.68906,-0.19688 1.32891,-0.59063 1.91953,-0.98437c1.47656,-0.93516 2.75625,-2.31328 3.78984,-3.69141c1.77187,-2.3625 3.15,-4.97109 4.28203,-7.67813c3.05156,1.87031 6.89063,2.75625 10.04063,2.85469c6.05391,0.24609 11.91094,-1.52578 17.37422,-4.08516c5.46328,6.3 13.97812,8.90859 22.34531,8.07188c6.10313,-0.59062 12.6,-4.28203 15.01172,-9.94219c2.70703,1.91953 5.85703,3.10078 9.35156,3.15c4.38047,0.04922 8.26875,-1.575 11.61563,-4.18359c1.575,2.70703 3.74062,5.21719 5.70937,7.38281c1.62422,1.82109 4.03594,4.33125 6.64453,5.26641c-0.68906,12.69844 -1.47656,25.2 -2.60859,37.70156zM185.65313,161.78203c1.23047,-5.41406 1.62422,-10.92656 1.575,-16.38984c0.09844,0.24609 0.14766,0.54141 0.24609,0.7875c1.72266,5.31563 4.38047,10.18828 6.59531,15.30703c2.16562,4.97109 3.69141,10.13906 2.60859,15.55312c-0.68906,3.34688 -3.69141,6.74297 -7.18594,7.0875c-4.23281,0.39375 -5.85703,-5.02031 -6.10312,-8.26875c-0.34453,-4.725 1.23047,-9.54844 2.26406,-14.07656zM163.30781,196.77656c-0.14766,-0.59062 -0.24609,0.59062 -0.24609,0.63984c-0.19688,0.83672 -0.49219,1.62422 -0.7875,2.3625c-0.63984,1.62422 -1.37813,3.19922 -2.11641,4.77422c-1.575,3.24844 -2.80547,6.93984 -4.62656,10.18828c-1.52578,-2.21484 -2.26406,-5.5125 -3.15,-7.62891c-1.77188,-4.08516 -4.42969,-7.875 -5.80781,-12.10781c4.57734,-0.44297 9.00703,-1.575 13.33828,-3.78984c0.44297,-0.24609 0.73828,-0.63984 0.93516,-1.08281c0.19687,0.29531 0.34453,0.59062 0.54141,0.88594c0.73828,1.13203 1.62422,2.21484 2.60859,3.19922c-0.68906,0.63984 -0.98438,1.52578 -0.68906,2.55937zM139.28906,207.30938c0,0 0.04922,-0.04922 0.14766,-0.14766c-0.24609,0.29531 0.44297,-0.29531 0.59062,-0.34453c-0.04922,0.04922 0.7875,-0.24609 1.08281,-0.34453c1.03359,-0.24609 2.55937,0.09844 2.90391,0.88594c1.62422,3.64219 -3.59297,6.05391 -5.21719,3.05156c0.68906,-0.7875 0.98438,-1.91953 0.49219,-3.10078zM138.40312,201.74766c0.68906,-1.72266 1.32891,-3.39609 2.31328,-4.97109c0.19688,-0.34453 0.29531,-0.63984 0.34453,-0.93516c0.54141,1.87031 1.27969,3.64219 2.16562,5.36484c-1.62422,-0.24609 -3.34687,-0.04922 -4.82344,0.54141zM138.69844,189.88594c-3.29766,0 -6.59531,0 -9.79453,-0.68906c-2.60859,-0.54141 -5.06953,-1.23047 -7.72734,-1.32891c0,-1.67344 -0.29531,-3.44531 -0.98437,-5.36484c6.3,1.52578 12.94453,1.91953 19.58906,0.93516c6.49687,-0.93516 12.45234,-3.19922 17.71875,-6.34922c0,2.06719 0.04922,4.03594 0.49219,6.15234c0.19687,0.93516 0.44297,1.87031 0.7875,2.75625c-0.44297,-0.09844 -0.93516,-0.04922 -1.37813,0.09844c-0.44297,0.14766 -0.88594,0.34453 -1.27969,0.63984c-0.19687,0.19688 -0.39375,0.39375 -0.54141,0.59063c-5.36484,2.41172 -11.025,2.60859 -16.88203,2.55937zM135.30234,195.3c-1.62422,2.90391 -2.70703,6.20156 -4.18359,9.20391c-2.11641,4.33125 -4.33125,8.46562 -6.93984,12.55078c-0.04922,0.09844 -0.14766,0.19687 -0.19688,0.34453c-0.63984,-1.03359 -1.18125,-2.16562 -1.47656,-3.34688c-0.63984,-2.16562 -2.26406,-4.33125 -3.34688,-6.3c-1.37812,-2.46094 -2.70703,-4.92187 -3.83906,-7.48125c-0.14766,-0.29531 -0.29531,-0.54141 -0.49219,-0.7875c2.26406,-1.77188 4.08516,-3.78984 5.21719,-6.15234c0.14766,0 0.34453,0.04922 0.49219,0c3.05156,-0.14766 6.00469,0.98438 9.00703,1.47656c1.82109,0.34453 3.78984,0.44297 5.75859,0.49219zM80.17734,170.73984c0.68906,3.69141 1.32891,7.82578 -0.24609,11.36953c-1.03359,2.31328 -4.33125,5.26641 -6.74297,3.10078c-2.11641,-1.91953 -2.80547,-5.56172 -3.05156,-8.26875c-0.44297,-4.725 1.13203,-9.59766 2.70703,-14.02734c1.87031,-5.16797 3.78984,-10.28672 5.21719,-15.60234c0.39375,-1.42734 0.73828,-2.85469 1.08281,-4.28203c-0.44297,4.33125 -0.73828,8.71172 -0.68906,13.09219c-0.04922,4.97109 0.83672,9.74531 1.72266,14.61797zM59.01328,200.07422c-2.55938,0 -5.16797,0.09844 -7.72734,-0.24609c-1.96875,-0.29531 -6.00469,-1.42734 -5.75859,-4.13437c0.24609,-2.70703 1.67344,-4.87266 0.14766,-7.53047c-1.42734,-2.51016 -4.38047,-2.85469 -6.93984,-3.10078c-5.90625,-0.49219 -9.99141,-5.66016 -11.41875,-11.07422c-1.96875,-7.28438 2.06719,-13.48594 4.77422,-19.88437c0.59063,-1.37813 0.14766,-2.95312 -1.23047,-3.64219c-3.88828,-1.96875 -7.77656,-3.9375 -10.87734,-7.0875c-3.24844,-3.29766 -4.08516,-8.21953 -4.47891,-12.64922c-0.44297,-4.57734 -0.14766,-9.45 1.77188,-13.68281c1.82109,-4.03594 6.05391,-6.15234 7.92422,-10.13906c2.21484,-4.725 -1.23047,-8.56406 -3.54375,-12.35391c-2.51016,-4.13438 0.59063,-11.17266 2.3625,-15.01172c2.06719,-4.57734 4.92188,-8.71172 8.12109,-12.55078c3.19922,-3.83906 7.13672,-6.84141 12.25547,-7.18594c1.82109,-0.09844 2.85469,-1.96875 2.3625,-3.59297c-2.16563,-7.23516 3.24844,-15.35625 8.02266,-20.32734c2.90391,-2.95312 6.34922,-5.36484 9.89297,-7.53047c1.67344,-1.03359 3.29766,-2.01797 5.26641,-2.31328c1.87031,-0.29531 3.78984,-0.34453 5.66016,-0.39375c3.05156,-0.09844 4.97109,-2.06719 6.25078,-4.62656c1.87031,-3.64219 4.47891,-6.00469 7.97344,-8.07187c7.03828,-4.23281 15.65156,-7.43203 23.13281,-2.3625c1.575,1.03359 3.19922,0.7875 4.23281,-0.83672c2.75625,-4.28203 9.84375,-3.69141 14.07656,-2.85469c2.46094,0.49219 4.97109,1.47656 6.89063,3.10078c1.575,1.32891 0.49219,4.18359 0.19688,5.90625c-0.04922,0.39375 -0.04922,0.73828 0,1.03359c-3.74063,1.23047 -6.98906,4.03594 -9.20391,7.18594c-7.62891,-6.54609 -19.53984,-3.39609 -27.41484,1.13203c-4.67578,2.70703 -8.12109,7.28437 -8.71172,12.74766c-0.29531,2.46094 0.29531,4.62656 1.52578,6.34922c-7.03828,2.75625 -14.47031,8.46563 -11.8125,15.79922c0.14766,0.44297 0.39375,0.88594 0.59063,1.32891c-1.13203,3.19922 -2.55938,6.15234 -4.62656,8.85938c-0.93516,1.27969 -2.16563,2.31328 -3.64219,2.75625c-1.32891,0.44297 -2.3625,0.88594 -3.39609,1.91953c-0.68906,0.73828 -0.83672,1.52578 -0.68906,2.26406c0.73828,10.92656 2.21484,21.75469 3.88828,32.58281c0.88594,5.70938 1.575,11.46797 2.41172,17.22656c-0.34453,0.34453 -0.59062,0.7875 -0.68906,1.37813c-1.27969,6.59531 -2.55937,13.23984 -4.33125,19.73672c-1.67344,6.10312 -4.28203,11.86172 -6.05391,17.86641c-2.11641,7.23516 -2.80547,19.09688 4.47891,24.01875c3.74062,2.51016 7.92422,1.13203 11.07422,-1.62422c3.64219,-3.19922 4.67578,-7.82578 4.52813,-12.45234c-0.09844,-4.92187 -1.72266,-9.69609 -2.21484,-14.61797c-0.29531,-2.85469 -0.34453,-5.70937 -0.24609,-8.56406c5.85703,12.79688 16.73438,22.64063 29.53125,27.61172c0.04922,0.29531 0.14766,0.59062 0.34453,0.88594c1.62422,2.80547 2.60859,5.85703 1.72266,9.05625c-0.68906,2.51016 -3.15,4.57734 -5.31563,6.05391c-6.25078,4.23281 -14.27344,6.05391 -21.55781,7.53047c-6.98906,1.42734 -14.56875,1.82109 -21.36094,4.08516c-0.29531,-0.7875 -0.88594,-1.42734 -1.87031,-1.67344c-2.31328,-0.63984 -2.95312,-1.42734 -3.39609,-3.78984c-0.29531,-1.575 -1.32891,-2.51016 -2.90391,-2.51016zM210.50859,221.82891c-5.06953,7.48125 -14.81484,11.56641 -22.78828,15.11016c-14.02734,6.25078 -29.67891,7.03828 -44.78906,7.23516c-8.02266,0.09844 -16.04531,-0.19688 -24.06797,-0.7875c-7.82578,-0.59062 -15.50391,-1.82109 -23.28047,-2.85469c-6.54609,-0.83672 -12.99375,-2.65781 -18.94922,-5.5125c-5.41406,-2.60859 -12.35391,-6.89062 -14.9625,-12.6c-3.98672,-8.81016 12.89531,-10.53281 18.26016,-11.41875c7.875,-1.32891 21.01641,-3.64219 30.36797,-8.6625c2.21484,4.97109 5.5125,9.49922 7.43203,14.56875c1.23047,3.19922 3.9375,8.31797 8.12109,6.20156c1.62422,-0.7875 2.16563,-2.46094 3.29766,-3.78984c1.82109,-2.11641 3.15,-4.92187 4.38047,-7.43203c1.42734,3.78984 5.16797,6.20156 9.54844,5.21719c2.55937,-0.54141 4.47891,-2.31328 5.56172,-4.52813c1.32891,3.39609 2.90391,6.84141 6.15234,8.71172c0.98438,0.59062 2.55937,0.29531 3.24844,-0.63984c3.15,-4.18359 4.82344,-9.30234 7.0875,-13.97813c1.18125,-2.41172 2.95313,-5.61094 3.39609,-8.61328c1.72266,1.13203 3.59297,2.16563 5.41406,3.00234c8.41641,3.88828 17.37422,3.78984 26.28281,5.66016c3.64219,0.73828 7.97344,1.96875 10.43437,4.97109c2.46094,2.95313 1.91953,7.0875 -0.14766,10.13906zM234.08438,132.10312c-2.65781,3.29766 -7.13672,4.725 -11.07422,5.75859c-1.37813,0.34453 -2.21484,2.16562 -1.67344,3.44531c1.32891,3.10078 4.03594,4.87266 5.75859,7.62891c1.13203,1.77187 0.98438,4.52812 1.03359,6.49687c0,1.87031 0.09844,3.83906 -0.29531,5.66016c-1.23047,5.95547 -8.31797,11.8125 -14.37187,11.71406c-1.67344,0 -3.05156,2.06719 -2.3625,3.59297c0.98438,2.16563 2.26406,4.03594 3.69141,5.90625c1.72266,2.31328 2.60859,4.42969 2.85469,7.33359c0.34453,4.18359 -2.26406,11.86172 -7.72734,11.41875c-1.42734,-0.14766 -2.46094,0.73828 -2.90391,1.77188c-3.78984,-1.42734 -8.07188,-2.06719 -11.71406,-2.55938c-7.03828,-0.98437 -13.68281,-1.62422 -20.22891,-4.77422c-3.88828,-1.87031 -7.33359,-4.52812 -9.74531,-8.12109c-2.90391,-4.33125 -2.55937,-9.25313 -2.46094,-14.175c8.41641,-6.69375 14.81484,-16.04531 18.85078,-26.28281c0,0.68906 0,1.42734 0,2.11641c-0.14766,6.00469 -1.52578,11.66484 -2.80547,17.52187c-1.13203,5.16797 -1.77188,10.77891 0.34453,15.79922c1.87031,4.42969 6.20156,7.48125 11.07422,7.03828c4.52812,-0.44297 8.12109,-3.98672 10.18828,-7.77656c2.75625,-5.02031 2.11641,-11.27109 0.59063,-16.5375c-1.72266,-6.05391 -5.11875,-11.51719 -7.38281,-17.325c-2.46094,-6.15234 -3.88828,-12.69844 -5.70938,-19.09688c-0.24609,-0.7875 -0.68906,-1.32891 -1.27969,-1.575c0.98438,-6.98906 1.42734,-14.07656 1.96875,-21.01641c0.88594,-11.07422 1.52578,-22.19766 2.11641,-33.32109c1.08281,-1.96875 -1.23047,-4.82344 -3.64219,-3.69141c-0.63984,-0.24609 -1.18125,-0.63984 -1.67344,-1.08281c-1.42734,-1.13203 -2.60859,-2.46094 -3.78984,-3.83906c-1.62422,-1.96875 -3.54375,-4.28203 -4.67578,-6.64453c2.06719,-2.75625 3.29766,-6.15234 3.24844,-9.59766c-0.04922,-4.92187 -3.9375,-8.85937 -8.12109,-10.87734c-2.11641,-1.03359 -4.52812,-1.37812 -6.69375,-2.41172c-2.01797,-0.93516 -1.32891,-3.98672 -1.62422,-5.85703c-0.68906,-4.62656 -4.57734,-7.92422 -8.61328,-9.74531c-3.44531,-1.575 -7.72734,-2.65781 -11.66484,-2.80547c0.24609,-1.27969 0.44297,-2.55937 0.49219,-3.83906c0.29531,-0.24609 0.59062,-0.59062 0.7875,-1.08281c1.67344,-4.03594 7.23516,-2.95312 10.53281,-1.96875c3.34688,0.98438 9.15469,3.78984 9.59766,7.82578c0.14766,1.575 1.37813,2.46094 2.90391,2.51016c4.62656,0 9.45,0.39375 13.68281,2.41172c4.33125,2.06719 6.3,6.20156 6.69375,10.82813c0.14766,1.52578 1.42734,2.51016 2.90391,2.51016c3.05156,-0.09844 5.66016,-0.68906 8.46563,0.83672c2.65781,1.37813 4.82344,3.9375 6.89063,6.05391c3.78984,3.78984 6.59531,9.94219 3.9375,15.15937c-0.83672,1.67344 0.54141,4.33125 2.65781,3.88828c8.31797,-1.67344 14.71641,3.64219 17.76797,11.07422c1.47656,3.69141 2.06719,7.77656 1.575,11.76328c-0.59062,4.47891 -5.80781,7.38281 -5.56172,11.96016c0.24609,4.57734 4.62656,6.15234 6.93984,9.45c2.80547,4.03594 2.65781,9.74531 2.65781,14.42109c0.19687,4.38047 0.44297,8.61328 -2.41172,12.10781z"></path></g></g></g></g></g></svg>
