<svg xmlns="http://www.w3.org/2000/svg" x="0px" y="0px"
     width="40" height="40"
     viewBox="0 0 252 252"
     style="fill:#ffffff;"><g fill="none" fill-rule="nonzero" stroke="none" stroke-width="1" stroke-linecap="butt" stroke-linejoin="miter" stroke-miterlimit="10" stroke-dasharray="" stroke-dashoffset="0" font-family="none" font-weight="none" font-size="none" text-anchor="none" style="mix-blend-mode: normal"><path d="M0,252v-252h252v252z" fill="none"></path><path d="M126,252c-69.58788,0 -126,-56.41212 -126,-126v0c0,-69.58788 56.41212,-126 126,-126v0c69.58788,0 126,56.41212 126,126v0c0,69.58788 -56.41212,126 -126,126z" fill="#f1c40f"></path><g fill="#ffffff"><g id="surface1"><path d="M192.70065,120.11821c-0.83702,-20.56867 -17.83807,-37.03457 -38.59883,-37.03457c-3.58133,0 -7.01173,0.46654 -10.41469,1.42705c-7.86247,-11.77312 -21.13125,-18.99068 -35.25077,-18.99068c-22.54457,0 -41.01383,17.78318 -42.09784,40.06705c-16.47963,4.52813 -28.1567,19.74537 -28.1567,37.21295c0,21.30963 17.33037,38.64 38.64,38.64h105.38182c17.44014,0 31.61455,-14.1744 31.61455,-31.61455c0,-13.46088 -8.72693,-25.52216 -21.11753,-29.70724zM126,161.81813l-23.55997,-23.55997l4.96721,-4.96721l15.08003,15.08003v-40.69824h7.02545v40.69824l15.08003,-15.08003l4.96721,4.96721z"></path></g></g></g></svg>
